<?xml version="1.0" encoding="UTF-8"?>
<svg id="Layer_2" data-name="Layer 2" xmlns="http://www.w3.org/2000/svg" viewBox="0 0 1762.28 1762.28">
  <defs>
    <style>
      .cls-1 {
        fill: #fff;
      }
    </style>
  </defs>
  <g id="LEMONS">
    <g>
      <circle class="cls-1" cx="881.14" cy="881.14" r="881.14"/>
      <path d="m1692.89,881.14c0,383.96-266.58,705.66-624.75,790.11-60.03,14.15-122.65,21.65-187.01,21.65s-126.98-7.49-187.01-21.65c-358.17-84.45-624.75-406.15-624.75-790.11,0-448.32,363.43-811.76,811.76-811.76s811.76,363.43,811.76,811.76Z"/>
      <path class="cls-1" d="m705.9,211.52c-6.47-23.09,8.33-46.78,31.93-50.99,46.52-8.29,94.41-12.61,143.31-12.61s96.79,4.33,143.31,12.61c23.61,4.2,38.41,27.9,31.93,50.99l-136.1,485.29c-11.1,39.56-67.18,39.56-78.28,0l-136.1-485.29Z"/>
      <path class="cls-1" d="m1056.38,1550.76c6.47,23.09-8.33,46.78-31.93,50.99-46.52,8.29-94.41,12.61-143.31,12.61s-96.79-4.33-143.31-12.61c-23.61-4.2-38.41-27.9-31.93-50.99l136.1-485.29c11.1-39.56,67.18-39.56,78.28,0l136.1,485.29Z"/>
      <path class="cls-1" d="m1132.96,236.4c8.33-22.48,34.24-32.95,55.81-22.48,42.5,20.64,83.79,45.29,123.35,74.03,39.56,28.74,75.76,60.39,108.53,94.44,16.63,17.28,14.67,45.15-4.13,60.02l-395.36,312.61c-32.23,25.49-77.61-7.48-63.33-46.01l175.14-472.61Z"/>
      <path class="cls-1" d="m629.32,1525.88c-8.33,22.48-34.24,32.95-55.81,22.48-42.5-20.64-83.79-45.29-123.35-74.03-39.56-28.74-75.76-60.39-108.53-94.44-16.63-17.28-14.67-45.15,4.13-60.02l395.36-312.61c32.23-25.49,77.61,7.48,63.33,46.01l-175.14,472.61Z"/>
      <path class="cls-1" d="m1463.83,507.55c19.96-13.29,47.07-6.54,58.36,14.62,22.25,41.68,41.17,85.89,56.28,132.4,15.11,46.51,25.8,93.39,32.29,140.19,3.3,23.75-14.67,45.15-38.62,46.13l-503.6,20.52c-41.06,1.67-58.39-51.67-24.19-74.45l419.48-279.4Z"/>
      <path class="cls-1" d="m298.44,1254.73c-19.96,13.29-47.07,6.54-58.36-14.62-22.25-41.68-41.17-85.89-56.28-132.4-15.11-46.51-25.8-93.39-32.29-140.19-3.3-23.75,14.67-45.15,38.62-46.13l503.6-20.52c41.06-1.67,58.39,51.67,24.19,74.45l-419.48,279.4Z"/>
      <path class="cls-1" d="m1572.14,921.4c23.96.98,41.92,22.38,38.62,46.13-6.49,46.8-17.18,93.69-32.29,140.19-15.11,46.5-34.02,90.72-56.28,132.4-11.29,21.15-38.4,27.91-58.36,14.62l-419.48-279.4c-34.2-22.78-16.87-76.12,24.19-74.45l503.6,20.52Z"/>
      <path class="cls-1" d="m190.14,840.88c-23.96-.98-41.92-22.38-38.62-46.13,6.49-46.8,17.18-93.69,32.29-140.19,15.11-46.5,34.02-90.72,56.28-132.4,11.29-21.15,38.4-27.91,58.36-14.62l419.48,279.4c34.2,22.78,16.87,76.12-24.19,74.45l-503.6-20.52Z"/>
      <path class="cls-1" d="m1416.5,1319.87c18.81,14.87,20.76,42.74,4.13,60.02-32.76,34.05-68.97,65.69-108.53,94.44-39.56,28.74-80.85,53.39-123.35,74.03-21.57,10.47-47.47,0-55.81-22.48l-175.14-472.61c-14.28-38.53,31.1-71.5,63.33-46.01l395.36,312.61Z"/>
      <path class="cls-1" d="m345.77,442.41c-18.81-14.87-20.76-42.74-4.13-60.02,32.76-34.05,68.97-65.69,108.53-94.44,39.56-28.74,80.85-53.39,123.35-74.03,21.57-10.47,47.47,0,55.81,22.48l175.14,472.61c14.28,38.53-31.1,71.5-63.33,46.01l-395.36-312.61Z"/>
    </g>
  </g>
</svg>